<?xml version="1.0" encoding="UTF-8"?><svg id="Layer_1" xmlns="http://www.w3.org/2000/svg" viewBox="0 0 216 216"><defs><style>.cls-1{fill:#c9194a;}</style></defs><path class="cls-1" d="M95.32,107.93c-.05,3.88-2.45,7.48-6.15,8.81s-8.01.18-10.53-2.91-2.74-7.38-.75-10.71,5.94-5.14,9.73-4.42c4.45.85,7.63,4.72,7.69,9.23.03,1.93,3.03,1.93,3,0-.07-5.17-3.24-9.76-8.08-11.6-4.82-1.83-10.55-.3-13.81,3.69s-3.81,9.76-1.13,14.24,7.89,6.74,12.97,5.82c5.81-1.05,9.96-6.33,10.04-12.15.03-1.93-2.97-1.93-3,0Z"/><path class="cls-1" d="M139.43,107.93c-.05,3.88-2.45,7.48-6.15,8.81s-8.01.18-10.53-2.91-2.74-7.38-.75-10.71,5.94-5.14,9.73-4.42c4.45.85,7.63,4.72,7.69,9.23.03,1.93,3.03,1.93,3,0-.07-5.17-3.24-9.76-8.08-11.6-4.82-1.83-10.55-.3-13.81,3.69s-3.81,9.76-1.13,14.24,7.89,6.74,12.97,5.82c5.81-1.05,9.96-6.33,10.04-12.15.03-1.93-2.97-1.93-3,0Z"/><path class="cls-1" d="M117.49,145.17c-.07,5.17-4.26,9.5-9.49,9.49s-9.42-4.31-9.49-9.49c-.03-1.93-3.03-1.93-3,0,.07,5.21,3.27,9.85,8.15,11.71s10.55.34,13.85-3.62c1.91-2.3,2.94-5.1,2.98-8.09.03-1.93-2.97-1.93-3,0h0Z"/><path class="cls-1" d="M44.64,129.81c-6.13-.08-11.51-4.69-12.19-10.87-.8-7.39,5.22-13.81,12.6-13.62,1.93.05,1.93-2.95,0-3-6.84-.18-13.11,4.36-15.06,10.93-1.77,5.99.42,12.59,5.34,16.38,2.67,2.06,5.92,3.13,9.29,3.17,1.93.02,1.93-2.98,0-3h0Z"/><path class="cls-1" d="M170.94,105.32c7.38-.19,13.41,6.23,12.6,13.62-.67,6.18-6.05,10.79-12.19,10.87-1.93.02-1.93,3.02,0,3,5.89-.07,11.44-3.48,13.87-8.92,2.7-6.03,1.26-13.39-3.77-17.76-2.91-2.53-6.65-3.91-10.52-3.81-1.93.05-1.93,3.05,0,3h0Z"/><path class="cls-1" d="M84.51,31.65c-.04,2.78-1.74,5.38-4.4,6.34s-5.81.15-7.64-2.12-1.94-5.31-.51-7.69,4.25-3.69,6.98-3.19c3.22.59,5.53,3.4,5.57,6.66.03,1.93,3.03,1.93,3,0-.06-4.09-2.57-7.7-6.4-9.15s-8.28-.22-10.83,2.89-3.03,7.7-.91,11.24,6.23,5.31,10.26,4.58c4.57-.82,7.82-5.01,7.88-9.57.03-1.93-2.97-1.93-3,0Z"/><path class="cls-1" d="M137.62,170.39h-6.09c-2.1,0-4.24-.21-6.2.67-2.3,1.04-4.57,2.15-6.85,3.23-9.47,4.47-18.94,8.93-28.42,13.4-2.56,1.2-5.11,2.41-7.67,3.61l2.26,1.3v-20.71c0-.81-.69-1.5-1.5-1.5-2.51,0-5.04.09-7.55-.12-3.96-.33-7.89-1.47-11.42-3.3-7.06-3.64-12.63-9.94-15.23-17.46-1.52-4.39-1.74-8.83-1.74-13.4v-14.95c0-8.59-.13-17.2,0-25.79.13-8.16,3.53-16.04,9.36-21.75s13.68-8.86,21.81-8.9c7.24-.03,14.48,0,21.72,0h32.46c2.72,0,5.48-.11,8.18.15,8.01.76,15.48,4.8,20.69,10.9,4.8,5.63,7.34,12.86,7.36,20.22.01,3.23,0,6.46,0,9.69,0,10.5,0,21,0,31.51,0,5.15-.58,10.15-2.76,14.9-3.31,7.21-9.32,13.08-16.7,16.04-3.73,1.5-7.69,2.24-11.71,2.26-1.93.01-1.93,3.01,0,3,8.59-.05,16.91-3.27,23.23-9.11,6.17-5.7,10.01-13.59,10.8-21.94.32-3.36.15-6.81.15-10.18v-33.1c0-4.86-.23-9.61-1.85-14.27-2.71-7.82-8.25-14.53-15.46-18.62-5.4-3.07-11.43-4.45-17.61-4.45h-57.22c-5.55,0-10.9.93-15.95,3.31-7.5,3.54-13.56,9.91-16.79,17.54-2.1,4.97-2.71,10.13-2.71,15.47v14.8c0,8.96-.14,17.94,0,26.9.13,8.5,3.49,16.75,9.32,22.94s13.7,9.89,22.06,10.59c2.5.21,5.04.12,7.55.12l-1.5-1.5v20.71c0,1.21,1.26,1.77,2.26,1.3,6.56-3.09,13.12-6.19,19.68-9.28,7.63-3.6,15.21-7.33,22.89-10.8,1.3-.59,2.72-.43,4.12-.43h7.02c1.93,0,1.93-3,0-3Z"/><path class="cls-1" d="M76.26,39.9v23.32c0,1.93,3,1.93,3,0v-23.32c0-1.93-3-1.93-3,0h0Z"/><path class="cls-1" d="M128.49,31.65c.06,4.09,2.57,7.7,6.4,9.15s8.28.22,10.83-2.89,3.03-7.7.91-11.24-6.23-5.31-10.26-4.58c-4.57.82-7.82,5.01-7.88,9.57-.03,1.93,2.97,1.93,3,0,.04-2.78,1.74-5.38,4.4-6.34s5.81-.15,7.64,2.12,1.94,5.31.51,7.69-4.25,3.69-6.98,3.19c-3.22-.59-5.53-3.4-5.57-6.66-.03-1.93-3.03-1.93-3,0Z"/><path class="cls-1" d="M136.74,39.9v23.32c0,1.93,3,1.93,3,0v-23.32c0-1.93-3-1.93-3,0h0Z"/><path class="cls-1" d="M142.93,127.54h-67.07c-2.17,0-4.31.11-6.4-.64-3.15-1.14-5.59-3.88-6.44-7.1-.41-1.55-.34-3.12-.34-4.7v-13.74c0-1.33-.09-2.72.08-4.04.44-3.35,2.57-6.29,5.55-7.85,2.29-1.2,4.67-1.15,7.15-1.15h62.91c1.52,0,3.03-.02,4.55,0,5.91.07,10.39,4.83,10.41,10.67.01,4.12,0,8.24,0,12.36s.55,8.47-2.01,11.96c-1.96,2.68-5.09,4.18-8.38,4.23-1.93.03-1.93,3.03,0,3,7.37-.11,13.3-6.03,13.39-13.41.05-3.93,0-7.86,0-11.78,0-4.32.51-8.96-1.56-12.91-2.42-4.61-7.23-7.11-12.34-7.11h-50.46c-6.2,0-12.41-.02-18.61,0-5.73.02-10.85,3.41-12.87,8.83-.72,1.92-.81,3.91-.81,5.93v6.61c0,3.8-.28,7.72.05,11.5.61,6.96,6.42,12.27,13.38,12.35,5.51.07,11.03,0,16.55,0h53.28c1.93,0,1.93-3,0-3Z"/></svg>