<?xml version="1.0" encoding="UTF-8"?><svg id="Layer_1" xmlns="http://www.w3.org/2000/svg" viewBox="0 0 216 216"><defs><style>.cls-1{fill:none;stroke:#c9194a;stroke-linecap:round;stroke-linejoin:round;stroke-width:3px;}</style></defs><circle class="cls-1" cx="108" cy="30.37" r="14.38"/><circle class="cls-1" cx="108" cy="185.63" r="14.38"/><path class="cls-1" d="M40.53,37.19c5.61,5.61,5.61,14.72,0,20.33-5.61,5.61-14.72,5.61-20.33,0-5.61-5.61-5.61-14.72,0-20.33,5.61-5.61,14.72-5.61,20.33,0Z"/><path class="cls-1" d="M195.8,57.52c-5.61,5.61-14.72,5.61-20.33,0-5.61-5.61-5.61-14.72,0-20.33,5.61-5.61,14.72-5.61,20.33,0,5.61,5.61,5.61,14.72,0,20.33Z"/><path class="cls-1" d="M40.53,178.81c-5.61,5.61-14.72,5.61-20.33,0-5.61-5.61-5.61-14.72,0-20.33,5.61-5.61,14.72-5.61,20.33,0,5.61,5.61,5.61,14.72,0,20.33Z"/><line class="cls-1" x1="108" y1="171.25" x2="108" y2="152.45"/><line class="cls-1" x1="174.31" y1="56.19" x2="151.25" y2="74.19"/><line class="cls-1" x1="54.07" y1="150.15" x2="41.7" y2="159.81"/><path class="cls-1" d="M175.47,178.81c5.61,5.61,14.72,5.61,20.33,0,5.61-5.61,5.61-14.72,0-20.33-5.61-5.61-14.72-5.61-20.33,0-5.61,5.61-5.61,14.72,0,20.33Z"/><line class="cls-1" x1="161.93" y1="150.15" x2="174.3" y2="159.81"/><line class="cls-1" x1="60.79" y1="71.08" x2="41.7" y2="56.19"/><line class="cls-1" x1="108" y1="44.75" x2="108" y2="56.25"/><path class="cls-1" d="M68.18,142.34c-12.18,0-22.04-9.88-22.04-22.11,0-10.8,7.71-19.77,17.92-21.71-.52-1.26-.81-2.64-.81-4.09,0-5.93,4.79-10.74,10.71-10.74,2.18,0,4.23.66,5.92,1.8,4.25-11.63,15.33-19.92,28.38-19.92,14.62,0,26.79,10.39,29.64,24.19,1.76-.37,3.58-.58,5.45-.58,14.65,0,26.52,11.9,26.52,26.59s-11.87,26.57-26.52,26.57h-75.16Z"/><path class="cls-1" d="M126.79,95c3.18-2.55,6.96-4.38,11.09-5.25"/></svg>