<?xml version="1.0" encoding="UTF-8"?><svg id="Layer_1" xmlns="http://www.w3.org/2000/svg" viewBox="0 0 216 216"><defs><style>.cls-1{stroke-linecap:square;}.cls-1,.cls-2{fill:none;stroke:#c9194a;stroke-miterlimit:10;stroke-width:3px;}</style></defs><line class="cls-1" x1="108" y1="159.29" x2="108" y2="172.68"/><line class="cls-1" x1="100.88" y1="179.81" x2="59.45" y2="179.81"/><circle class="cls-1" cx="108" cy="179.81" r="7.12"/><line class="cls-1" x1="156.55" y1="179.81" x2="115.12" y2="179.81"/><line class="cls-2" x1="104.51" y1="78.16" x2="111.49" y2="78.16"/><line class="cls-2" x1="104.51" y1="110.2" x2="111.49" y2="110.2"/><line class="cls-2" x1="104.51" y1="142.98" x2="111.49" y2="142.98"/><ellipse class="cls-2" cx="108" cy="46.11" rx="53.67" ry="17.04"/><path class="cls-2" d="M161.67,78.16c0,9.41-24.03,17.04-53.67,17.04s-53.67-7.63-53.67-17.04"/><path class="cls-2" d="M161.67,110.2c0,9.41-24.03,17.04-53.67,17.04s-53.67-7.63-53.67-17.04"/><path class="cls-2" d="M54.33,46.11v96.14c0,9.41,24.03,17.04,53.67,17.04s53.67-7.63,53.67-17.04V46.11"/></svg>