<?xml version="1.0" encoding="UTF-8"?><svg id="Layer_1" xmlns="http://www.w3.org/2000/svg" viewBox="0 0 216 216"><defs><style>.cls-1{fill:none;stroke:#c9194a;stroke-linecap:round;stroke-linejoin:round;stroke-width:3px;}</style></defs><path class="cls-1" d="M49.16,176.7c25.76,25.73,67.67,25.73,93.43,0l34.62-34.57-21.51-21.48-34.62,34.57c-13.9,13.88-36.51,13.88-50.41,0-13.9-13.88-13.9-36.47,0-50.35l34.62-34.57-21.51-21.48-34.62,34.57c-25.76,25.73-25.76,67.59,0,93.32Z"/><line class="cls-1" x1="157.04" y1="160.93" x2="136.47" y2="140.38"/><line class="cls-1" x1="85.12" y1="89.09" x2="64.55" y2="68.55"/><path class="cls-1" d="M174.61,74.88c-15.97-8.03-34.8-8.07-50.8-.09l-.23.11c-7.12,3.55-11.62,10.82-11.62,18.78v11.98h74.2v-12.04c0-7.92-4.47-15.18-11.55-18.74Z"/><path class="cls-1" d="M131.57,38.89c0,10.44,7.83,18.89,17.5,18.89s17.5-8.46,17.5-18.89-7.83-18.89-17.5-18.89-17.5,8.46-17.5,18.89Z"/></svg>