<?xml version="1.0" encoding="UTF-8"?><svg id="Layer_1" xmlns="http://www.w3.org/2000/svg" viewBox="0 0 216 216"><defs><style>.cls-1{fill:none;stroke:#c9194a;stroke-linecap:round;stroke-linejoin:round;stroke-width:3px;}</style></defs><polyline class="cls-1" points="170.05 30.93 125.01 30.93 129.45 45.86 125.01 60.28 170.05 60.28"/><line class="cls-1" x1="170.87" y1="106.35" x2="170.87" y2="25.67"/><path class="cls-1" d="M76.75,40.02c-4.49-6.24-13.17-7.65-19.4-3.15-6.23,4.49-7.64,13.19-3.15,19.43,4.49,6.24,14.59,9.61,20.81,5.12,6.23-4.49,6.22-15.16,1.73-21.39Z"/><path class="cls-1" d="M44.89,89.31v20.51c0,8.43-.82,16.85-2.44,25.12l-10.87,55.39"/><path class="cls-1" d="M98.27,119.79c1.67-4.88-.7-10.23-5.43-12.27l-18.8-8.13"/><path class="cls-1" d="M36.77,133.2c-4.31,0-7.81-3.5-7.81-7.82v-33.66c0-1.99.71-3.92,1.99-5.43l8.08-9.54c4.59-5.42,12.11-7.34,18.73-4.77l4.24,1.64c7.26,2.82,12.04,9.81,12.04,17.6v26.14l24.72,10.39c3.45,1.45,5.9,4.57,6.5,8.27l4.52,28.08"/><polyline class="cls-1" points="46.77 190.33 61.97 133.25 91.12 142.79 95.24 163.74"/><polyline class="cls-1" points="187.04 106.35 152.51 106.35 152.51 137.91 117.98 137.91 117.98 169.47 83.46 169.47 83.46 190.33"/></svg>