<?xml version="1.0" encoding="UTF-8"?><svg id="Layer_1" xmlns="http://www.w3.org/2000/svg" viewBox="0 0 216 216"><defs><style>.cls-1{fill:none;stroke:#c9194a;stroke-linecap:round;stroke-linejoin:round;stroke-width:3px;}</style></defs><path class="cls-1" d="M93.99,172.04l.46-31.74-28.84-3.55c-7.01-.86-11.94-7.31-10.93-14.3l4.85-33.62c1.23-8.52,9.3-14.31,17.77-12.73l31.87,5.94s9.83-9.03,16.21-14.91c2.92-2.68,7.47-2.41,10.07.62l.12.13c2.31,2.72,2.14,6.75-.4,9.25l-17.86,17.6c-2.97,2.94-7.18,4.25-11.3,3.52l-20.95-3.7-3.82,26.96,19.83,3.83c4.44.86,7.6,4.81,7.47,9.33l-.86,29.07"/><line class="cls-1" x1="75.47" y1="138.35" x2="56.55" y2="194.17"/><line class="cls-1" x1="58.24" y1="133.15" x2="41.11" y2="195.8"/><path class="cls-1" d="M86.52,40.9c-6.37-4.74-15.38-3.41-20.12,2.96-4.74,6.37-3.41,15.38,2.96,20.11,6.37,4.74,17.39,4.9,22.13-1.47,4.74-6.37,1.4-16.87-4.97-21.6Z"/><path class="cls-1" d="M117.45,74.42c-1.37-3.18-2.36-6.6-2.88-10.18-3.22-22.08,12.06-42.6,34.14-45.81,22.08-3.22,42.6,12.06,45.81,34.14,3.22,22.08-12.06,42.6-34.14,45.81-10.4,1.52-20.46-1.07-28.53-6.56"/><polyline class="cls-1" points="190.08 101.44 137.31 112.63 119.17 156.77 91.96 173.26 81.24 191.4 21.05 198"/></svg>