<?xml version="1.0" encoding="UTF-8"?><svg id="Layer_1" xmlns="http://www.w3.org/2000/svg" viewBox="0 0 216 216"><defs><style>.cls-1{fill:none;stroke:#c9194a;stroke-linejoin:round;stroke-width:3px;}</style></defs><line class="cls-1" x1="157.21" y1="157.23" x2="142.39" y2="142.34"/><path class="cls-1" d="M192.14,192.14h0c6.3-6.3,6.3-16.5,0-22.8l-23.55-23.55-22.8,22.8,23.55,23.55c6.3,6.3,16.5,6.3,22.8,0Z"/><path class="cls-1" d="M152.59,129.54c-21.1,33.83-65.63,44.15-99.45,23.05C19.31,131.49,8.99,86.96,30.09,53.13,51.19,19.31,95.71,8.99,129.54,30.09c33.83,21.1,44.15,65.63,23.05,99.45Z"/><path class="cls-1" d="M138.88,76.38c1.74,5.11,2.69,10.57,2.69,16.26,0,27.68-22.45,50.13-50.13,50.13s-50.13-22.45-50.13-50.13,22.43-50.13,50.13-50.13c5.69,0,11.15.96,16.26,2.69"/><path class="cls-1" d="M117.62,85.19c.69,2.37,1.05,4.87,1.05,7.46,0,15.02-12.22,27.24-27.23,27.24s-27.24-12.22-27.24-27.24,12.22-27.24,27.24-27.24c2.59,0,5.09.36,7.46,1.05"/><line class="cls-1" x1="82.5" y1="141.96" x2="86.25" y2="119.36"/><line class="cls-1" x1="68.62" y1="77.38" x2="49.64" y2="64.54"/><path class="cls-1" d="M113.01,85.53c-2.7-6.51-7.97-11.79-14.47-14.48l-.94-.39c-1.26-.52-1.85-1.96-1.33-3.22l10.52-25.38c.52-1.26,1.96-1.85,3.22-1.33h0c15.08,6.27,27.06,18.25,33.33,33.33h0c.52,1.26-.07,2.7-1.33,3.22l-25.4,10.52c-1.26.52-2.7-.08-3.22-1.33l-.39-.94Z"/><line class="cls-1" x1="136.29" y1="114.5" x2="115.67" y2="104.5"/></svg>