<?xml version="1.0" encoding="UTF-8"?><svg id="Layer_1" xmlns="http://www.w3.org/2000/svg" viewBox="0 0 216 216"><defs><style>.cls-1{stroke-miterlimit:10;}.cls-1,.cls-2{fill:none;stroke:#c9194a;stroke-width:3px;}.cls-2{stroke-linejoin:round;}</style></defs><line class="cls-1" x1="136.53" y1="137.17" x2="160.47" y2="137.17"/><line class="cls-1" x1="115.58" y1="151.28" x2="160.47" y2="151.28"/><path class="cls-2" d="M84.03,139.08c0,30.5,24.72,55.22,55.22,55.22,11.66,0,22.46-3.63,31.37-9.8l23.85,9.8-9.8-23.85c6.17-8.91,9.8-19.71,9.8-31.37,0-30.5-24.72-55.22-55.22-55.22"/><path class="cls-2" d="M31.33,108.3c-6.17-8.91-9.8-19.71-9.8-31.37,0-30.5,24.73-55.22,55.22-55.22s55.22,24.73,55.22,55.22-24.73,55.22-55.22,55.22c-11.66,0-22.46-3.63-31.37-9.8l-23.85,9.8,9.8-23.85Z"/><polygon class="cls-1" points="103.62 64.45 69.22 98.85 49.87 79.5 59.33 70.04 69.23 79.93 94.17 54.99 103.62 64.45"/></svg>