<?xml version="1.0" encoding="UTF-8"?><svg id="Layer_1" xmlns="http://www.w3.org/2000/svg" viewBox="0 0 216 216"><defs><style>.cls-1{fill:none;stroke:#c9194a;stroke-linejoin:round;stroke-width:3px;}</style></defs><path class="cls-1" d="M100.76,191.05c.2-4.27-.74-8.22-2.06-11.61"/><path class="cls-1" d="M42.83,179.6c-1.28,3.35-2.31,7.22-2.18,11.45"/><path class="cls-1" d="M70.75,144.58c-26.04,0-44.86,20.26-45.81,45.76"/><path class="cls-1" d="M116.5,190.56c-.75-25.55-19.46-45.98-45.76-45.98"/><path class="cls-1" d="M70.71,133.01h0c-10.05,0-18.21-8.15-18.21-18.21v-10.12c0-10.05,8.15-18.21,18.21-18.21h0c10.05,0,18.21,8.15,18.21,18.21v10.12c0,10.05-8.15,18.21-18.21,18.21Z"/><path class="cls-1" d="M191.06,37.41v42.06c0,6.86-5.52,12.46-12.46,12.46h-39.55l-24.18,21.31v-21.31h-2.61c-6.86,0-12.38-5.6-12.38-12.46v-42.06c0-6.86,5.52-12.46,12.38-12.46h66.34c6.94,0,12.46,5.6,12.46,12.46Z"/><circle class="cls-1" cx="127.28" cy="58.55" r="1.37"/><path class="cls-1" d="M146.84,58.55c0,.75-.61,1.37-1.37,1.37s-1.37-.61-1.37-1.37.61-1.37,1.37-1.37,1.37.61,1.37,1.37Z"/><circle class="cls-1" cx="163.66" cy="58.55" r="1.37"/><path class="cls-1" d="M160.97,109.75c-5.45,20.25-18.09,37.55-35.02,48.99"/></svg>