<?xml version="1.0" encoding="UTF-8"?><svg id="Layer_1" xmlns="http://www.w3.org/2000/svg" viewBox="0 0 216 216"><defs><style>.cls-1{stroke-linecap:square;}.cls-1,.cls-2{fill:none;stroke:#c9194a;stroke-miterlimit:10;stroke-width:3px;}</style></defs><polygon class="cls-2" points="155.71 45.27 154.99 32.33 171.57 15.75 170.89 30.09 185.23 29.41 168.65 45.99 155.71 45.27"/><line class="cls-2" x1="170.89" y1="30.09" x2="122.13" y2="78.85"/><path class="cls-2" d="M122.13,86.22c-2.04,2.04-5.34,2.04-7.38,0-2.04-2.04-2.04-5.34,0-7.38s5.34-2.04,7.38,0,2.04,5.34,0,7.38Z"/><path class="cls-2" d="M145.19,30.87c-21.9-11.35-49.51-7.84-67.88,10.54-22.72,22.72-22.72,59.55,0,82.27,22.72,22.72,59.55,22.72,82.27,0,18.28-18.28,21.84-45.69,10.7-67.54"/><path class="cls-2" d="M137.04,48.76c-14.66-8.09-33.45-5.94-45.88,6.49-15.07,15.07-15.07,39.5,0,54.57,15.07,15.07,39.5,15.07,54.57,0,12.58-12.58,14.62-31.68,6.19-46.41"/><path class="cls-2" d="M121.39,64.93c-5.5-.92-11.34.74-15.58,4.98-6.98,6.98-6.98,18.29,0,25.26s18.28,6.98,25.26,0c4.44-4.44,6.04-10.63,4.82-16.35"/><path class="cls-2" d="M44.84,160.41l17.38-14.55c2.65-2.22,5.75-3.83,9.09-4.72h0c5.85-1.56,12.07-.82,17.39,2.06l6.49,3.52c2.5,1.36,5.3,2.07,8.15,2.07h23.32c4.96,0,8.98,4.02,8.98,8.98h0c0,4.96-4.02,8.98-8.98,8.98h-35.47"/><path class="cls-2" d="M135.63,157.77s9.19-6.09,26.09-24.31c3.14-3.38,8.33-3.44,11.54-.13h0c2.78,2.87,3,7.34.51,10.47-5.32,6.68-20.88,21.8-30.4,30.89-4.96,4.73-9.66,9.31-20.01,9.31-12.21,0-31.06-.35-47.96,0-1.9.04-5.06,1.75-8.42,4.02"/><polyline class="cls-1" points="30.77 164.57 41.07 156.21 70.02 191.89 59.72 200.25"/></svg>