<?xml version="1.0" encoding="UTF-8"?><svg id="Layer_1" xmlns="http://www.w3.org/2000/svg" viewBox="0 0 216 216"><defs><style>.cls-1{fill:none;stroke:#c9194a;stroke-linejoin:round;stroke-width:3px;}</style></defs><path class="cls-1" d="M20.47,108v11.31l20.26,5.04c1.71,7.04,4.48,13.64,8.15,19.65-3.83,6.37-10.76,17.9-10.76,17.9l15.99,15.99s11.53-6.93,17.89-10.76c6.02,3.67,12.62,6.44,19.66,8.15l5.04,20.26h22.61l5.04-20.26c7.04-1.71,13.64-4.48,19.66-8.15,6.36,3.83,17.89,10.76,17.89,10.76l15.99-15.99s-6.93-11.53-10.76-17.9c3.67-6.02,6.44-12.62,8.15-19.65,7.21-1.79,20.26-5.04,20.26-5.04v-11.31"/><path class="cls-1" d="M140.82,108c0,18.13-14.7,32.82-32.82,32.82s-32.82-14.7-32.82-32.82"/><line class="cls-1" x1="108" y1="60.09" x2="108" y2="46"/><line class="cls-1" x1="74.12" y1="74.12" x2="64.16" y2="64.16"/><line class="cls-1" x1="141.86" y1="74.14" x2="151.83" y2="64.17"/><path class="cls-1" d="M155.89,108h14.11c0-34.24-27.76-62-62-62s-62,27.76-62,62h14.11"/><path class="cls-1" d="M20.47,108c0-48.34,39.19-87.53,87.53-87.53s87.53,39.19,87.53,87.53"/><polyline class="cls-1" points="84.21 84.21 108 108 125.69 90.68"/></svg>