<?xml version="1.0" encoding="UTF-8"?><svg id="Layer_1" xmlns="http://www.w3.org/2000/svg" viewBox="0 0 216 216"><defs><style>.cls-1{fill:none;stroke:#c9194a;stroke-miterlimit:10;stroke-width:3px;}</style></defs><polygon class="cls-1" points="160.12 59.82 159.12 41.71 182.31 18.52 181.36 38.58 201.42 37.63 178.23 60.81 160.12 59.82"/><line class="cls-1" x1="181.36" y1="38.58" x2="113.16" y2="106.78"/><path class="cls-1" d="M113.16,117.1c-2.85,2.85-7.47,2.85-10.32,0-2.85-2.85-2.85-7.47,0-10.32s7.47-2.85,10.32,0,2.85,7.47,0,10.32Z"/><path class="cls-1" d="M145.41,39.67c-30.64-15.87-69.25-10.96-94.95,14.74-31.77,31.77-31.78,83.29,0,115.07,31.77,31.77,83.29,31.77,115.07,0,25.57-25.57,30.54-63.91,14.96-94.47"/><path class="cls-1" d="M134.01,64.69c-20.51-11.31-46.79-8.31-64.18,9.08-21.08,21.08-21.08,55.25,0,76.33,21.08,21.08,55.25,21.08,76.33,0,17.6-17.6,20.45-44.31,8.65-64.92"/><path class="cls-1" d="M112.13,87.31c-7.69-1.29-15.86,1.03-21.79,6.96-9.76,9.76-9.76,25.58,0,35.33s25.57,9.76,35.33,0c6.21-6.21,8.45-14.87,6.75-22.86"/><polyline class="cls-1" points="50.47 169.47 37.88 197.48 49.36 197.48 65.4 182.43"/><polyline class="cls-1" points="166.59 168.4 178.74 197.48 167.26 197.48 151.22 182.43"/><line class="cls-1" x1="7.97" y1="197.48" x2="208.03" y2="197.48"/></svg>