<?xml version="1.0" encoding="UTF-8"?><svg id="Layer_1" xmlns="http://www.w3.org/2000/svg" viewBox="0 0 216 216"><defs><style>.cls-1{fill:none;stroke:#c9194a;stroke-linecap:round;stroke-linejoin:round;stroke-width:3px;}</style></defs><path class="cls-1" d="M165.96,74.2c5.96,24.93-.76,52.28-20.16,71.74-29.67,29.77-77.79,29.77-107.46,0s-29.67-78.03,0-107.8c29.67-29.76,77.79-29.76,107.46,0,2.76,2.78,5.27,5.72,7.52,8.78"/><path class="cls-1" d="M155.84,134.18l37.96,33.77c7.87,7,8.17,19.25.64,26.78h0c-7.53,7.53-19.78,7.21-26.76-.7l-33.59-38.05"/><line class="cls-1" x1="187.67" y1="30.01" x2="129.03" y2="92.49"/><line class="cls-1" x1="113.5" y1="92.45" x2="96.12" y2="75.63"/><line class="cls-1" x1="78.37" y1="78.48" x2="56.62" y2="100.23"/><polyline class="cls-1" points="163.67 30.01 187.67 30.01 187.67 54.01"/><path class="cls-1" d="M97.38,70.47c0-6.18-5.01-11.19-11.19-11.19s-11.19,5.01-11.19,11.19,5.01,11.19,11.19,11.19,11.19-5.01,11.19-11.19Z"/><path class="cls-1" d="M132.42,100.52c0-6.18-5.01-11.19-11.19-11.19s-11.19,5.01-11.19,11.19,5.01,11.19,11.19,11.19,11.19-5.01,11.19-11.19Z"/><path class="cls-1" d="M59.32,107.51c0-6.18-5.01-11.19-11.19-11.19s-11.19,5.01-11.19,11.19,5.01,11.19,11.19,11.19,11.19-5.01,11.19-11.19Z"/></svg>