<?xml version="1.0" encoding="UTF-8"?><svg id="Layer_1" xmlns="http://www.w3.org/2000/svg" viewBox="0 0 216 216"><defs><style>.cls-1{fill:none;stroke:#c9194a;stroke-linecap:round;stroke-linejoin:round;stroke-width:3px;}</style></defs><path class="cls-1" d="M138.41,74.84c22.98,8.97,38.82,27.88,38.82,49.74,0,10.89-3.92,21.04-10.7,29.59-7.88,9.95-13.95,21.21-17.45,33.41l-.22.78c-.35,1.23-1.48,2.08-2.76,2.08h-12.07c-1.28,0-2.41-.85-2.76-2.08l-2.36-8.23c-.42-1.45-1.88-2.32-3.35-2.01-5.52,1.15-11.32,1.75-17.29,1.75s-11.77-.61-17.29-1.75c-1.47-.31-2.93.57-3.35,2.01l-2.36,8.23c-.35,1.23-1.48,2.08-2.76,2.08h-12.07c-1.28,0-2.41-.85-2.76-2.08l-6.5-22.69c-.17-.59-.52-1.1-1-1.47-6.42-5.01-11.63-11.02-15.23-17.71-.43-.79-1.22-1.32-2.11-1.45l-16.03-2.53c-1.42-.2-2.47-1.41-2.47-2.85v-23.44c0-1.43,1.05-2.65,2.47-2.85l12.82-2.07c1.05-.15,1.94-.87,2.3-1.87,2.06-5.84,5.3-11.29,9.49-16.16.69-.8.87-1.92.48-2.91l-8.28-21.11c-.34-.87.33-1.79,1.26-1.74,4.86.28,17.74,1.66,27.13,8.4.83.6,1.91.69,2.85.28,1.02-.46,2.06-.89,3.12-1.31"/><circle class="cls-1" cx="59.1" cy="108.31" r="2.19"/><path class="cls-1" d="M169.82,99.64c8.81,1.79,13.1-5.47,13.38-11.44.11-2.32-.99-5.53-3.65-5.85-3.62-.43-5.95,3.29-5.5,6.39,1.2,8.22,12.34,9.35,17.63,1.33"/><path class="cls-1" d="M96.07,79.59c-9.58-4.56-16.2-14.33-16.2-25.65,0-15.68,12.71-28.39,28.39-28.39s28.39,12.71,28.39,28.39c0,11.32-6.62,21.09-16.21,25.65"/><path class="cls-1" d="M116.03,47.59c0-3.68-2.92-7.21-7.81-7.21s-7.91,2.89-7.91,6.49,4.03,5.77,7.91,6.56c3.88.79,8.66,3.03,8.66,7.28s-3.31,6.78-8.66,6.78-9.21-4.28-9.21-8.11"/><line class="cls-1" x1="108.21" y1="35.73" x2="108.21" y2="40.38"/><line class="cls-1" x1="108.21" y1="67.5" x2="108.21" y2="72.14"/><path class="cls-1" d="M78.21,85.34c8.74-4.31,19.03-6.8,30.05-6.8s21.31,2.49,30.05,6.8"/></svg>