<?xml version="1.0" encoding="UTF-8"?><svg id="Layer_1" xmlns="http://www.w3.org/2000/svg" viewBox="0 0 216 216"><defs><style>.cls-1{stroke-linecap:square;}.cls-1,.cls-2{fill:none;stroke:#c9194a;stroke-miterlimit:10;stroke-width:3px;}</style></defs><path class="cls-2" d="M37.38,140.41c0,4.89-3.96,8.85-8.85,8.85s-8.85-3.96-8.85-8.85,3.96-8.85,8.85-8.85,8.85,3.96,8.85,8.85Z"/><path class="cls-2" d="M89.52,66.9c3.46-3.46,9.06-3.46,12.52,0,3.46,3.46,3.46,9.06,0,12.52-3.46,3.46-9.06,3.46-12.52,0-3.46-3.46-3.46-9.06,0-12.52Z"/><path class="cls-2" d="M119.16,96.54c3.46-3.46,9.06-3.46,12.52,0,3.46,3.46,3.46,9.06,0,12.52-3.46,3.46-9.06,3.46-12.52,0-3.46-3.46-3.46-9.06,0-12.52Z"/><line class="cls-2" x1="34.78" y1="134.15" x2="89.52" y2="79.41"/><line class="cls-2" x1="102.03" y1="79.41" x2="119.16" y2="96.54"/><line class="cls-2" x1="131.68" y1="96.54" x2="187.48" y2="40.75"/><line class="cls-1" x1="88.14" y1="99.82" x2="88.14" y2="175.25"/><line class="cls-1" x1="68.28" y1="119.89" x2="68.28" y2="175.25"/><line class="cls-1" x1="48.41" y1="139.88" x2="48.41" y2="175.25"/><line class="cls-1" x1="28.54" y1="164.66" x2="28.54" y2="175.25"/><line class="cls-1" x1="108.01" y1="111.71" x2="108.01" y2="175.25"/><line class="cls-1" x1="127.88" y1="127.14" x2="127.88" y2="175.25"/><line class="cls-1" x1="147.74" y1="99.87" x2="147.74" y2="175.25"/><line class="cls-1" x1="167.61" y1="80.38" x2="167.61" y2="175.25"/><line class="cls-1" x1="187.48" y1="70.48" x2="187.48" y2="175.25"/><line class="cls-1" x1="199.27" y1="175.25" x2="16.73" y2="175.25"/><polyline class="cls-2" points="187.48 57.21 187.48 40.75 171.01 40.75"/></svg>