<?xml version="1.0" encoding="UTF-8"?><svg id="Layer_1" xmlns="http://www.w3.org/2000/svg" viewBox="0 0 216 216"><defs><style>.cls-1{fill:none;stroke:#c9194a;stroke-linecap:round;stroke-linejoin:round;stroke-width:3px;}</style></defs><path class="cls-1" d="M158.05,120.3v-31.25M57.95,89.04v44.56c0,5.37,4.36,9.73,9.73,9.73h24.46M140.39,53.65l-27.11-20.43c-3.12-2.35-7.43-2.35-10.55,0l-66.33,49.99c-2.21,1.66-2.65,4.8-1,7.01l4.57,6.13c1.65,2.21,4.78,2.66,6.98,1l60.18-45.35c.52-.39,1.24-.39,1.76,0l60.18,45.35c2.2,1.66,5.33,1.21,6.98-1l4.57-6.13c1.65-2.21,1.2-5.34-1-7l-21.56-16.25v-29.03c0-1.95-1.58-3.53-3.53-3.53h-10.6c-1.95,0-3.53,1.58-3.53,3.53v15.72ZM140.39,134.5v-11.78c0-4.86-3.97-8.83-8.83-8.83h0c-1.03,0-2.03.18-2.95.51M138.99,117.98c1.28-.73,2.76-1.14,4.34-1.14h0c4.86,0,8.83,3.97,8.83,8.83v11.78M150.77,120.92c1.28-.73,2.76-1.15,4.34-1.15h0c4.86,0,8.83,3.97,8.83,8.83v23.55c0,22.08-10.67,32.39-29.44,32.39-28.58,0-24.97-20.26-36.94-34.71-6.13-7.41-8.12-9.67-8.12-9.67-3.12-3.72-2.63-9.32,1.09-12.44h0c3.72-3.12,9.32-2.63,12.44,1.09l5.67,6.76c1.22,1.31,2.29,1.35,2.29-2.98v-45.2c0-4.86,3.97-8.83,8.83-8.83h0c4.86,0,8.83,3.97,8.83,8.83v44.16"/></svg>