<?xml version="1.0" encoding="UTF-8"?><svg id="Layer_1" xmlns="http://www.w3.org/2000/svg" viewBox="0 0 216 216"><defs><style>.cls-1{fill:none;stroke:#c9194a;stroke-linecap:round;stroke-linejoin:round;stroke-width:3px;}</style></defs><path class="cls-1" d="M160.19,190.37v-16.94c0-11.15-6.29-21.35-16.25-26.35-22.46-11.29-48.94-11.35-71.45-.13l-.33.16c-10.02,4.99-16.35,15.22-16.35,26.41v16.86"/><path class="cls-1" d="M83.39,100.8c0,14.68,11.02,26.58,24.61,26.58s24.61-11.9,24.61-26.58-11.02-26.58-24.61-26.58-24.61,11.9-24.61,26.58Z"/><line class="cls-1" x1="78.4" y1="170.73" x2="78.4" y2="190.37"/><line class="cls-1" x1="137.6" y1="170.73" x2="137.6" y2="190.37"/><line class="cls-1" x1="133.71" y1="30.16" x2="131.51" y2="36.2"/><line class="cls-1" x1="127.88" y1="46.17" x2="120.28" y2="67.06"/><line class="cls-1" x1="156.32" y1="43.21" x2="152.19" y2="48.13"/><line class="cls-1" x1="145.37" y1="56.26" x2="131.08" y2="73.29"/><line class="cls-1" x1="173.1" y1="63.21" x2="167.54" y2="66.42"/><line class="cls-1" x1="158.35" y1="71.73" x2="139.09" y2="82.84"/><line class="cls-1" x1="182.03" y1="87.74" x2="175.7" y2="88.86"/><line class="cls-1" x1="165.25" y1="90.7" x2="143.36" y2="94.56"/><line class="cls-1" x1="182.03" y1="113.85" x2="175.7" y2="112.73"/><line class="cls-1" x1="165.25" y1="110.89" x2="143.36" y2="107.03"/><line class="cls-1" x1="173.1" y1="138.38" x2="167.54" y2="135.17"/><line class="cls-1" x1="158.35" y1="129.86" x2="139.09" y2="118.75"/><line class="cls-1" x1="42.9" y1="138.38" x2="48.46" y2="135.17"/><line class="cls-1" x1="57.65" y1="129.86" x2="76.91" y2="118.75"/><line class="cls-1" x1="33.97" y1="113.85" x2="40.3" y2="112.73"/><line class="cls-1" x1="50.75" y1="110.89" x2="72.64" y2="107.03"/><line class="cls-1" x1="33.97" y1="87.74" x2="40.3" y2="88.86"/><line class="cls-1" x1="50.75" y1="90.7" x2="72.64" y2="94.56"/><line class="cls-1" x1="42.9" y1="63.21" x2="48.46" y2="66.42"/><line class="cls-1" x1="57.65" y1="71.73" x2="76.91" y2="82.84"/><line class="cls-1" x1="59.68" y1="43.21" x2="63.81" y2="48.13"/><line class="cls-1" x1="70.63" y1="56.26" x2="84.92" y2="73.29"/><line class="cls-1" x1="82.29" y1="30.16" x2="84.49" y2="36.2"/><line class="cls-1" x1="88.12" y1="46.17" x2="95.72" y2="67.06"/><line class="cls-1" x1="108" y1="25.63" x2="108" y2="32.05"/><line class="cls-1" x1="108" y1="42.66" x2="108" y2="64.89"/></svg>