<?xml version="1.0" encoding="UTF-8"?><svg id="Layer_1" xmlns="http://www.w3.org/2000/svg" viewBox="0 0 216 216"><defs><style>.cls-1{stroke-linecap:round;}.cls-1,.cls-2{fill:none;stroke:#c9194a;stroke-linejoin:round;stroke-width:3px;}</style></defs><path class="cls-1" d="M15.94,151.9V25.24c0-3.68,3.04-6.66,6.79-6.66h84.7l24.39,24.2v108.91c0,3.67-3.03,6.86-6.78,6.86H22.75c-3.76,0-6.81-2.98-6.81-6.66Z"/><path class="cls-1" d="M107.37,18.6v17.81c0,3.68,3.04,6.66,6.79,6.66h17.67"/><line class="cls-1" x1="33.05" y1="97.83" x2="114.71" y2="97.83"/><line class="cls-1" x1="33.05" y1="79.33" x2="114.71" y2="79.33"/><line class="cls-1" x1="33.05" y1="60.84" x2="58.46" y2="60.84"/><line class="cls-1" x1="89.29" y1="116.32" x2="114.71" y2="116.32"/><circle class="cls-2" cx="188.13" cy="69.02" r="11.93"/><polyline class="cls-2" points="131.83 104.4 176.69 104.4 188.15 80.98"/><circle class="cls-2" cx="158.59" cy="45.22" r="11.93"/><path class="cls-2" d="M131.83,80.58h18.83c4.38,0,7.95-3.54,7.95-7.95v-15.47"/><circle class="cls-2" cx="108.18" cy="185.48" r="11.93"/><path class="cls-2" d="M72.82,158.72v18.83c0,4.38,3.54,7.95,7.95,7.95h15.47"/></svg>