<?xml version="1.0" encoding="UTF-8"?><svg id="Layer_1" xmlns="http://www.w3.org/2000/svg" viewBox="0 0 216 216"><defs><style>.cls-1{stroke-linecap:round;}.cls-1,.cls-2{fill:none;stroke:#c9194a;stroke-linejoin:round;stroke-width:3px;}</style></defs><line class="cls-1" x1="146.49" y1="12.83" x2="146.49" y2="67.98"/><polyline class="cls-2" points="146.49 49.95 195.69 49.95 188.7 34.03 195.69 17.55 146.49 17.55"/><path class="cls-1" d="M79.38,43.78c0,8.4,6.3,15.21,14.08,15.21s14.08-6.81,14.08-15.21-6.3-15.21-14.08-15.21-14.08,6.81-14.08,15.21Z"/><path class="cls-1" d="M71.21,177.64l3.23-85.37L23.33,53.49c-1.96-1.49-3.02-3.77-3.02-6.09,0-1.63.52-3.28,1.61-4.69,2.4-3.11,6.86-3.74,10.21-1.7l32.51,19.86c7.62,4.66,16.37,7.12,25.29,7.12h61.43l-.34,2.58c-.96,7.26-6.89,12.84-14.19,13.36l-27.95,2.23v26.72l18.17,15.68c2.45,2.12,3.86,5.19,3.86,8.43v28.08"/><polyline class="cls-1" points="84.96 176.7 93.46 127.91 114.77 142.65 117.43 165.07"/><line class="cls-1" x1="146.49" y1="165.07" x2="146.49" y2="89.34"/><path class="cls-1" d="M39.45,203.17l12.44-16.29c4.06-5.32,10.23-8.64,16.91-9.09l28.94-1.97,10.76-10.76h38.31c5.54,0,10.49,3.45,12.41,8.64l5.77,15.57,14.8,13.9"/></svg>