<?xml version="1.0" encoding="UTF-8"?><svg id="Layer_1" xmlns="http://www.w3.org/2000/svg" viewBox="0 0 216 216"><defs><style>.cls-1{fill:none;stroke:#c9194a;stroke-linecap:round;stroke-linejoin:round;stroke-width:3px;}</style></defs><polyline class="cls-1" points="27.65 26.16 27.65 189.83 193.78 189.83"/><circle class="cls-1" cx="144.57" cy="81.74" r="8.41"/><circle class="cls-1" cx="80.76" cy="81.74" r="8.41"/><line class="cls-1" x1="27.65" y1="132.31" x2="74.82" y2="87.69"/><line class="cls-1" x1="152.98" y1="76.07" x2="193.78" y2="37.73"/><line class="cls-1" x1="89.18" y1="81.74" x2="136.15" y2="81.74"/><polyline class="cls-1" points="176.13 37.73 193.78 37.73 193.78 55.38"/><line class="cls-1" x1="22.22" y1="26.16" x2="33.12" y2="26.16"/><rect class="cls-1" x="81.02" y="110.72" width="112.76" height="78.81"/><polyline class="cls-1" points="64.61 189.84 64.61 143.53 64.61 127.13 81.01 127.13"/><line class="cls-1" x1="177.67" y1="189.84" x2="177.67" y2="189.52"/><line class="cls-1" x1="161.59" y1="189.84" x2="161.59" y2="189.52"/><polyline class="cls-1" points="48.21 189.84 48.21 143.53 64.61 143.53"/><circle class="cls-1" cx="136.09" cy="150.12" r="13.7"/><path class="cls-1" d="M95.03,161.83c8.43-.07,15.19,5.72,14.76,12.65v.02s23.55,0,23.55,0h31.66v-.02c-.43-6.93,6.33-12.72,14.76-12.65h0v-23.42h0c-8.43.07-15.19-5.72-14.76-12.65v-.02s-26.33,0-26.33,0h-28.88v.02c.43,6.93-6.33,12.72-14.76,12.65h0v23.42h0Z"/></svg>