<?xml version="1.0" encoding="UTF-8"?><svg id="Layer_1" xmlns="http://www.w3.org/2000/svg" viewBox="0 0 216 216"><defs><style>.cls-1{fill:none;stroke:#c9194a;stroke-linecap:round;stroke-linejoin:round;stroke-width:3px;}</style></defs><path class="cls-1" d="M131.37,74.13c0,12.91-10.46,23.37-23.37,23.37s-23.37-10.46-23.37-23.37,10.46-23.37,23.37-23.37,23.37,10.46,23.37,23.37Z"/><polyline class="cls-1" points="67.27 116.92 67.27 176.05 108 189.66"/><polyline class="cls-1" points="77.58 118.09 67.27 114.66 26.52 128.25 26.52 189.67 67.26 176.06"/><polyline class="cls-1" points="138.39 118.13 148.73 114.66 189.48 128.25 189.48 189.67 148.74 176.06"/><polyline class="cls-1" points="108 158.76 108 189.66 148.73 176.05 148.73 116.92"/><path class="cls-1" d="M154.74,72.57c0,35.73-46.74,86.18-46.74,86.18,0,0-46.76-50.45-46.74-86.18.02-25.54,20.92-46.24,46.74-46.24s46.74,20.7,46.74,46.24Z"/></svg>