<?xml version="1.0" encoding="UTF-8"?><svg id="Layer_1" xmlns="http://www.w3.org/2000/svg" viewBox="0 0 216 216"><defs><style>.cls-1{stroke-linecap:square;}.cls-1,.cls-2{fill:none;stroke:#c9194a;stroke-miterlimit:10;stroke-width:3px;}</style></defs><path class="cls-2" d="M45.44,148.33c0,4.52-3.66,8.18-8.18,8.18s-8.18-3.66-8.18-8.18,3.66-8.18,8.18-8.18,8.18,3.66,8.18,8.18Z"/><path class="cls-2" d="M93.62,80.41c3.19-3.19,8.37-3.19,11.57,0,3.19,3.19,3.19,8.37,0,11.57-3.19,3.19-8.37,3.19-11.57,0-3.19-3.19-3.19-8.37,0-11.57Z"/><path class="cls-2" d="M121.01,107.8c3.19-3.19,8.37-3.19,11.57,0,3.19,3.19,3.19,8.37,0,11.57-3.19,3.19-8.37,3.19-11.57,0-3.19-3.19-3.19-8.37,0-11.57Z"/><line class="cls-2" x1="43.04" y1="142.55" x2="93.62" y2="91.97"/><line class="cls-2" x1="105.18" y1="91.97" x2="121.01" y2="107.8"/><line class="cls-2" x1="132.58" y1="107.8" x2="184.13" y2="56.25"/><line class="cls-1" x1="92.35" y1="110.83" x2="92.35" y2="180.53"/><line class="cls-1" x1="73.99" y1="129.38" x2="73.99" y2="180.53"/><line class="cls-1" x1="55.64" y1="147.85" x2="55.64" y2="180.53"/><line class="cls-1" x1="37.28" y1="170.74" x2="37.28" y2="180.53"/><line class="cls-1" x1="110.71" y1="121.82" x2="110.71" y2="180.53"/><line class="cls-1" x1="129.06" y1="136.07" x2="129.06" y2="180.53"/><line class="cls-1" x1="147.42" y1="110.88" x2="147.42" y2="180.53"/><line class="cls-1" x1="165.78" y1="92.87" x2="165.78" y2="180.53"/><line class="cls-1" x1="184.13" y1="83.72" x2="184.13" y2="180.53"/><line class="cls-1" x1="195.03" y1="180.53" x2="26.36" y2="180.53"/><path class="cls-2" d="M41.43,45.61c-11.3,0-20.46,9.16-20.46,20.46s9.16,20.46,20.46,20.46,20.46-9.16,20.46-20.46h-20.46v-20.46Z"/><path class="cls-2" d="M51.58,35.47v20.46h20.46c0-11.3-9.16-20.46-20.46-20.46Z"/><polyline class="cls-2" points="184.13 71.46 184.13 56.25 168.92 56.25"/></svg>