<?xml version="1.0" encoding="UTF-8"?><svg id="Layer_1" xmlns="http://www.w3.org/2000/svg" viewBox="0 0 216 216"><defs><style>.cls-1{fill:none;stroke:#c9194a;stroke-miterlimit:10;stroke-width:3px;}</style></defs><polyline class="cls-1" points="53.95 124.77 107 177.01 165.1 120.07"/><path class="cls-1" d="M182.33,99.5c2.61-5.49,4.08-11.63,4.08-18.12,0-23.41-18.98-42.4-42.4-42.4-15.91,0-29.76,8.78-37.01,21.75-7.25-12.97-21.1-21.75-37.01-21.75-23.41,0-42.4,18.98-42.4,42.4,0,9.08,2.86,17.49,7.73,24.38"/><path class="cls-1" d="M33.89,115.98h42.01l14.98-20.33c.14-.19.43-.12.48.11l8.47,45.19c.04.2.33.21.37,0l13.46-66.96c.04-.21.35-.2.37.01l5.99,46.53c.03.22.3.31.46.15l12.11-12.4c.14-.14.37-.09.44.09l4.45,11.58c.07.18.31.23.44.09l8.11-8.46h42.37"/></svg>