<?xml version="1.0" encoding="UTF-8"?>
<svg id="Layer_1" data-name="Layer 1" xmlns="http://www.w3.org/2000/svg" viewBox="0 0 1000 300">
  <defs>
    <style>
      .cls-1 {
        fill: #fff;
      }
    </style>
  </defs>
  <g>
    <g>
      <path class="cls-1" d="M63.87,219.08c-2.08-1.85-4.37-3.51-6.19-5.59-18.57-21.15-24.26-45.5-15.63-72.18,8.61-26.63,27.51-43.23,54.88-49.04,19.51-4.14,38.18-1.11,54.83,10.77,1.12.8,2.19,1.69,3.87,3-3.88-.43-6.97-.84-10.08-1.1-21.31-1.75-40.42,4.13-57.11,17.33-17.81,14.08-28.01,32.68-30.66,55.21-1.54,13.18.26,26.05,5.1,38.45.4,1.03.63,2.12.94,3.19l.06-.06Z"/>
      <path class="cls-1" d="M142.56,113.43c-47.67,21.17-64.59,79.69-31.41,124.12-5.39-.75-10.78-1.5-16.18-2.25-.09-.01-.18-.08-.27-.09-14.34-1.41-20.11-11.64-24.47-23.52-15.27-41.7,9.71-87.54,53.09-96.88,5.73-1.23,11.75-1.14,17.64-1.63.42-.03.85.13,1.59.25Z"/>
      <path class="cls-1" d="M156.38,117.87c-.55.69-1.01,1.47-1.65,2.07-18.94,17.97-27.9,40-26.37,66.05.87,14.75,5.82,28.24,14.23,40.44.48.7.94,1.4,1.4,2.11.04.07,0,.18,0,.5-6.55,3.34-13.59,5.53-20.88,6.87-.83.15-2.14-.92-2.86-1.75-10.98-12.77-17.19-27.58-17.68-44.42-.85-29.17,12.32-50.67,37.25-65.09,5.12-2.96,11.05-4.51,16.6-6.72l-.05-.07Z"/>
      <path class="cls-1" d="M164.18,123.96c-5.96,7.42-9.33,16.05-11,25.27-3.87,21.43,1.58,40.38,15.93,56.76.42.48.79,1.02,1.24,1.6-4.78,7.14-11.05,12.57-18.6,17.3-1.62-2.41-3.32-4.72-4.8-7.17-18.08-29.97-11.93-69.3,14.45-92.39.75-.65,1.84-.91,2.77-1.35v-.02Z"/>
      <path class="cls-1" d="M156.43,117.94c.13-.1.25-.19.38-.29-.14.07-.28.15-.43.22,0,0,.05.07.05.07Z"/>
      <path class="cls-1" d="M164.18,123.98c-.09-.13-.17-.25-.26-.38.05.05.11.08.14.14.04.06.07.14.11.22,0,0,0,.03,0,.03Z"/>
      <path class="cls-1" d="M63.81,219.14c.13.04.26.08.38.12l-.22.22c-.03-.13-.07-.26-.1-.39,0,0-.06.06-.06.06Z"/>
    </g>
    <g>
      <path class="cls-1" d="M272.3,221.2v-44.87h-50.47v44.87h-22.75v-106.88h22.75v41.98h50.47v-41.98h22.91v106.88h-22.91Z"/>
      <path class="cls-1" d="M311.07,167.84c0-33.81,25.64-55.28,56.88-55.28,22.27,0,36.21,11.22,44.23,23.87l-18.91,10.26c-4.81-7.53-13.94-13.94-25.32-13.94-19.39,0-33.49,14.9-33.49,35.09s14.1,35.09,33.49,35.09c9.45,0,18.43-4.16,22.75-8.17v-12.82h-28.2v-19.87h50.95v41.02c-10.9,12.18-26.12,20.19-45.51,20.19-31.25,0-56.88-21.79-56.88-55.44Z"/>
      <path class="cls-1" d="M454.04,221.2v-106.88h-9.8v106.88h9.8Z"/>
      <path class="cls-1" d="M520.99,221.2v-50.63c0-13.62-6.89-17.95-17.3-17.95-9.45,0-18.43,5.77-22.91,12.02v56.56h-12.02v-77.39h12.02v11.22c5.45-6.41,16.03-13.14,27.56-13.14,16.18,0,24.68,8.17,24.68,25v54.32h-12.02Z"/>
      <path class="cls-1" d="M550.31,210.95l6.25-8.65c5.13,5.93,14.9,11.06,25.48,11.06,11.86,0,18.27-5.61,18.27-13.3,0-18.75-47.91-7.21-47.91-35.89,0-12.02,10.42-22.27,28.84-22.27,13.14,0,22.43,4.97,28.68,11.22l-5.61,8.33c-4.65-5.61-13.14-9.77-23.07-9.77-10.58,0-17.15,5.29-17.15,12.18,0,16.98,47.91,5.77,47.91,35.89,0,12.98-10.42,23.39-30.44,23.39-12.66,0-23.4-3.84-31.25-12.18Z"/>
      <path class="cls-1" d="M629.46,124.74c0-4.49,3.69-8.17,8.01-8.17s8.17,3.69,8.17,8.17-3.69,8.01-8.17,8.01-8.01-3.53-8.01-8.01ZM631.55,221.2v-77.39h12.02v77.39h-12.02Z"/>
      <path class="cls-1" d="M667.43,241.07l6.09-8.97c6.41,7.69,14.1,10.58,25.16,10.58,12.82,0,24.84-6.25,24.84-23.23v-11.06c-5.61,7.85-15.06,13.78-25.96,13.78-20.19,0-34.45-15.06-34.45-40.06s14.1-40.22,34.45-40.22c10.42,0,19.71,5.13,25.96,13.62v-11.7h12.02v75.15c0,25.64-17.95,33.65-36.86,33.65-13.14,0-22.11-2.56-31.25-11.54ZM723.52,198.93v-33.81c-4.17-6.73-13.46-12.5-23.07-12.5-15.54,0-24.84,12.34-24.84,29.48s9.29,29.48,24.84,29.48c9.61,0,18.91-5.93,23.07-12.66Z"/>
      <path class="cls-1" d="M811.97,221.2v-50.95c0-13.62-7.05-17.63-17.47-17.63-9.29,0-18.27,5.77-22.91,12.02v56.56h-12.02v-106.88h12.02v40.7c5.45-6.41,16.02-13.14,27.72-13.14,16.18,0,24.68,7.85,24.68,24.68v54.64h-12.02Z"/>
      <path class="cls-1" d="M850.42,205.02v-50.63h-12.82v-10.58h12.82v-21.15h12.02v21.15h15.7v10.58h-15.7v48.07c0,5.77,2.56,9.93,7.85,9.93,3.36,0,6.57-1.44,8.17-3.2l3.53,8.97c-3.05,2.89-7.37,4.97-14.42,4.97-11.38,0-17.14-6.57-17.14-18.11Z"/>
      <path class="cls-1" d="M888.39,210.95l6.25-8.65c5.13,5.93,14.9,11.06,25.48,11.06,11.86,0,18.27-5.61,18.27-13.3,0-18.75-47.91-7.21-47.91-35.89,0-12.02,10.42-22.27,28.84-22.27,13.14,0,22.43,4.97,28.68,11.22l-5.61,8.33c-4.65-5.61-13.14-9.77-23.07-9.77-10.58,0-17.14,5.29-17.14,12.18,0,16.98,47.91,5.77,47.91,35.89,0,12.98-10.42,23.39-30.44,23.39-12.66,0-23.39-3.84-31.25-12.18Z"/>
    </g>
  </g>
  <path class="cls-1" d="M958.44,125.31c1.01,0,1.99.13,2.92.4.94.27,1.82.64,2.64,1.12.82.48,1.56,1.06,2.23,1.73.67.67,1.25,1.42,1.73,2.23.48.82.85,1.7,1.11,2.64s.39,1.92.39,2.93-.13,1.98-.4,2.92c-.27.94-.64,1.82-1.11,2.63-.48.82-1.05,1.56-1.72,2.23-.67.67-1.42,1.25-2.23,1.73-.82.48-1.7.85-2.64,1.11-.94.26-1.92.39-2.92.39s-1.99-.13-2.92-.39c-.94-.26-1.82-.63-2.63-1.11s-1.56-1.05-2.23-1.73c-.67-.67-1.25-1.41-1.72-2.23-.48-.81-.85-1.69-1.11-2.63s-.39-1.92-.39-2.92.13-1.99.39-2.93.63-1.82,1.11-2.64c.48-.82,1.05-1.56,1.72-2.23.67-.67,1.41-1.25,2.23-1.73s1.69-.85,2.63-1.12c.94-.27,1.92-.4,2.92-.4ZM958.44,145.77c.86,0,1.69-.11,2.49-.33.8-.22,1.54-.53,2.23-.94.68-.41,1.31-.89,1.88-1.46.56-.57,1.05-1.21,1.45-1.91.4-.7.71-1.45.93-2.26.22-.8.33-1.65.33-2.53s-.11-1.73-.33-2.54-.53-1.57-.93-2.27c-.4-.7-.88-1.34-1.45-1.91-.57-.58-1.19-1.07-1.88-1.48-.69-.41-1.43-.73-2.23-.95-.8-.23-1.63-.34-2.49-.34-1.29,0-2.5.25-3.62.74-1.12.5-2.1,1.17-2.93,2.03-.83.85-1.48,1.86-1.96,3.01-.47,1.16-.71,2.39-.71,3.71s.24,2.55.71,3.7,1.13,2.14,1.96,2.98c.83.85,1.81,1.51,2.93,2,1.12.49,2.33.74,3.62.74ZM958.32,129.62c1.8,0,3.12.32,3.97.96.85.64,1.28,1.59,1.28,2.83,0,.91-.25,1.7-.74,2.36-.49.67-1.24,1.14-2.25,1.42.2.12.37.27.5.44.13.18.26.38.38.61l3.06,4.79h-2.68c-.39,0-.67-.15-.84-.44l-2.57-4.2c-.1-.14-.21-.25-.33-.32s-.31-.11-.57-.11h-1v5.07h-2.79v-13.41h4.58ZM958.07,135.93c.53,0,.97-.05,1.33-.14.36-.1.64-.23.85-.41.21-.18.36-.41.44-.68s.13-.58.13-.93-.04-.64-.11-.89c-.08-.25-.21-.46-.4-.62-.19-.17-.45-.29-.77-.38-.32-.08-.72-.13-1.21-.13h-1.79v4.17h1.53Z"/>
</svg>